<svg xmlns="http://www.w3.org/2000/svg" xmlns:xlink="http://www.w3.org/1999/xlink" version="1.1" width="256" height="256" viewBox="0 0 256 256" xml:space="preserve">
<g style="stroke: none; stroke-width: 0; stroke-dasharray: none; stroke-linecap: butt; stroke-linejoin: miter; stroke-miterlimit: 10; fill: none; fill-rule: nonzero; opacity: 1;" transform="translate(1.4065934065934016 1.4065934065934016) scale(2.81 2.81)">
	<path d="M 76.59 59.683 H 13.41 c -0.319 0 -0.618 -0.152 -0.807 -0.409 s -0.243 -0.588 -0.147 -0.892 l 9.274 -29.363 c 0.131 -0.416 0.518 -0.699 0.954 -0.699 h 6.521 c 0.552 0 1 0.448 1 1 s -0.448 1 -1 1 h -5.788 l -8.643 27.363 h 60.451 L 66.583 30.32 h -5.788 c -0.553 0 -1 -0.448 -1 -1 s 0.447 -1 1 -1 h 6.521 c 0.437 0 0.822 0.283 0.953 0.699 l 9.274 29.363 c 0.097 0.304 0.042 0.635 -0.146 0.892 S 76.908 59.683 76.59 59.683 z" style="stroke: none; stroke-width: 1; stroke-dasharray: none; stroke-linecap: butt; stroke-linejoin: miter; stroke-miterlimit: 10; fill: rgb(0,0,0); fill-rule: nonzero; opacity: 1;" transform=" matrix(1 0 0 1 0 0) " stroke-linecap="round"/>
	<circle cx="55.475" cy="39.225" r="1.395" style="stroke: none; stroke-width: 1; stroke-dasharray: none; stroke-linecap: butt; stroke-linejoin: miter; stroke-miterlimit: 10; fill: rgb(0,0,0); fill-rule: nonzero; opacity: 1;" transform="  matrix(1 0 0 1 0 0) "/>
	<circle cx="34.145" cy="38.295" r="1.395" style="stroke: none; stroke-width: 1; stroke-dasharray: none; stroke-linecap: butt; stroke-linejoin: miter; stroke-miterlimit: 10; fill: rgb(0,0,0); fill-rule: nonzero; opacity: 1;" transform="  matrix(1 0 0 1 0 0) "/>
	<circle cx="44.345000000000006" cy="44.795" r="1.395" style="stroke: none; stroke-width: 1; stroke-dasharray: none; stroke-linecap: butt; stroke-linejoin: miter; stroke-miterlimit: 10; fill: rgb(0,0,0); fill-rule: nonzero; opacity: 1;" transform="  matrix(1 0 0 1 0 0) "/>
	<path d="M 33.591 15.839 c -3.126 0 -5.669 -2.543 -5.669 -5.669 c 0 -2.268 1.251 -3.958 2.462 -5.593 c 0.876 -1.183 1.781 -2.405 2.255 -3.882 C 32.771 0.281 33.156 0 33.591 0 s 0.82 0.281 0.952 0.695 c 0.474 1.477 1.379 2.7 2.255 3.882 c 1.21 1.635 2.462 3.325 2.462 5.593 C 39.26 13.296 36.717 15.839 33.591 15.839 z M 33.591 3.417 c -0.499 0.864 -1.069 1.634 -1.6 2.35 c -1.11 1.5 -2.069 2.794 -2.069 4.402 c 0 2.023 1.646 3.669 3.669 3.669 s 3.669 -1.646 3.669 -3.669 c 0 -1.608 -0.959 -2.903 -2.069 -4.402 C 34.66 5.052 34.09 4.281 33.591 3.417 z" style="stroke: none; stroke-width: 1; stroke-dasharray: none; stroke-linecap: butt; stroke-linejoin: miter; stroke-miterlimit: 10; fill: rgb(0,0,0); fill-rule: nonzero; opacity: 1;" transform=" matrix(1 0 0 1 0 0) " stroke-linecap="round"/>
	<path d="M 56.409 17.615 c -3.126 0 -5.669 -2.543 -5.669 -5.669 c 0 -2.268 1.252 -3.958 2.462 -5.593 c 0.876 -1.183 1.781 -2.405 2.255 -3.882 c 0.133 -0.414 0.518 -0.695 0.952 -0.695 s 0.819 0.281 0.952 0.695 c 0.474 1.477 1.379 2.7 2.255 3.882 c 1.21 1.635 2.462 3.325 2.462 5.593 C 62.078 15.072 59.535 17.615 56.409 17.615 z M 56.409 5.193 c -0.499 0.864 -1.069 1.634 -1.6 2.35 c -1.11 1.5 -2.069 2.794 -2.069 4.403 c 0 2.023 1.646 3.669 3.669 3.669 s 3.669 -1.646 3.669 -3.669 c 0 -1.608 -0.959 -2.903 -2.069 -4.403 C 57.479 6.827 56.908 6.057 56.409 5.193 z" style="stroke: none; stroke-width: 1; stroke-dasharray: none; stroke-linecap: butt; stroke-linejoin: miter; stroke-miterlimit: 10; fill: rgb(0,0,0); fill-rule: nonzero; opacity: 1;" transform=" matrix(1 0 0 1 0 0) " stroke-linecap="round"/>
	<path d="M 45.091 34.598 c -3.125 0 -5.668 -2.543 -5.668 -5.669 c 0 -2.268 1.251 -3.958 2.462 -5.592 c 0.875 -1.183 1.781 -2.405 2.254 -3.883 c 0.132 -0.414 0.518 -0.695 0.952 -0.695 s 0.82 0.281 0.952 0.695 c 0.474 1.477 1.379 2.7 2.255 3.882 c 1.21 1.635 2.462 3.325 2.462 5.593 C 50.76 32.055 48.217 34.598 45.091 34.598 z M 45.091 22.177 c -0.499 0.864 -1.069 1.634 -1.599 2.35 c -1.11 1.5 -2.069 2.794 -2.069 4.402 c 0 2.023 1.646 3.669 3.668 3.669 c 2.023 0 3.669 -1.646 3.669 -3.669 c 0 -1.608 -0.959 -2.903 -2.069 -4.402 C 46.16 23.811 45.59 23.041 45.091 22.177 z" style="stroke: none; stroke-width: 1; stroke-dasharray: none; stroke-linecap: butt; stroke-linejoin: miter; stroke-miterlimit: 10; fill: rgb(0,0,0); fill-rule: nonzero; opacity: 1;" transform=" matrix(1 0 0 1 0 0) " stroke-linecap="round"/>
	<path d="M 45 90 c -2.952 0 -5.354 -2.401 -5.354 -5.354 c 0 -2.138 1.174 -3.724 2.31 -5.257 c 0.813 -1.098 1.654 -2.233 2.092 -3.6 c 0.132 -0.414 0.518 -0.695 0.952 -0.695 l 0 0 c 0.435 0 0.82 0.281 0.952 0.695 c 0.438 1.366 1.279 2.502 2.092 3.601 c 1.136 1.533 2.31 3.118 2.31 5.256 C 50.354 87.599 47.952 90 45 90 z M 45 78.483 c -0.453 0.768 -0.962 1.455 -1.437 2.097 c -1.029 1.389 -1.917 2.589 -1.917 4.066 C 41.646 86.496 43.15 88 45 88 s 3.354 -1.504 3.354 -3.354 c 0 -1.478 -0.888 -2.678 -1.917 -4.066 C 45.962 79.938 45.452 79.251 45 78.483 z" style="stroke: none; stroke-width: 1; stroke-dasharray: none; stroke-linecap: butt; stroke-linejoin: miter; stroke-miterlimit: 10; fill: rgb(0,0,0); fill-rule: nonzero; opacity: 1;" transform=" matrix(1 0 0 1 0 0) " stroke-linecap="round"/>
	<path d="M 33.774 67.181 c -3.683 0 -6.679 -2.996 -6.679 -6.679 c 0 -0.717 0.104 -1.407 0.316 -2.111 c 0.16 -0.528 0.72 -0.829 1.246 -0.668 c 0.529 0.159 0.828 0.718 0.668 1.246 c -0.155 0.514 -0.23 1.016 -0.23 1.533 c 0 2.58 2.099 4.679 4.679 4.679 s 4.679 -2.099 4.679 -4.679 c 0 -0.518 -0.076 -1.02 -0.23 -1.533 c -0.16 -0.528 0.139 -1.087 0.668 -1.246 c 0.528 -0.16 1.087 0.14 1.246 0.668 c 0.213 0.704 0.316 1.395 0.316 2.111 C 40.453 64.185 37.457 67.181 33.774 67.181 z" style="stroke: none; stroke-width: 1; stroke-dasharray: none; stroke-linecap: butt; stroke-linejoin: miter; stroke-miterlimit: 10; fill: rgb(0,0,0); fill-rule: nonzero; opacity: 1;" transform=" matrix(1 0 0 1 0 0) " stroke-linecap="round"/>
	<path d="M 56.501 73.54 c -3.683 0 -6.679 -2.996 -6.679 -6.679 c 0 -2.688 1.501 -4.715 2.952 -6.675 c 0.487 -0.657 0.99 -1.336 1.44 -2.042 c 0.297 -0.466 0.915 -0.603 1.381 -0.305 c 0.466 0.297 0.602 0.915 0.305 1.381 c -0.487 0.764 -1.012 1.472 -1.519 2.156 c -1.373 1.854 -2.56 3.457 -2.56 5.484 c 0 2.58 2.099 4.679 4.679 4.679 s 4.679 -2.099 4.679 -4.679 c 0 -2.027 -1.186 -3.629 -2.56 -5.483 c -0.485 -0.657 -0.988 -1.336 -1.459 -2.065 c -0.3 -0.464 -0.167 -1.083 0.298 -1.382 c 0.462 -0.301 1.082 -0.167 1.382 0.298 c 0.437 0.675 0.92 1.328 1.387 1.959 c 1.451 1.96 2.952 3.986 2.952 6.674 C 63.18 70.544 60.184 73.54 56.501 73.54 z" style="stroke: none; stroke-width: 1; stroke-dasharray: none; stroke-linecap: butt; stroke-linejoin: miter; stroke-miterlimit: 10; fill: rgb(0,0,0); fill-rule: nonzero; opacity: 1;" transform=" matrix(1 0 0 1 0 0) " stroke-linecap="round"/>
</g>
</svg>
